<svg width="226" height="123" viewBox="0 0 226 123" fill="none" xmlns="http://www.w3.org/2000/svg">
<path d="M12.4167 122.151C10.9387 122.86 9.06768 123 7.43128 123C5.88285 123 3.67751 122.789 2.0939 122.292C0.873923 121.911 0 121.356 0 120.571V117.692C0 117.563 0.105575 117.493 0.246341 117.452C0.381242 117.411 0.563064 117.4 0.651043 117.4C0.762482 117.4 0.920845 117.411 1.03815 117.446C1.17305 117.487 1.27276 117.563 1.27276 117.692C1.27276 118.892 1.92967 119.881 2.96782 120.583C4.09981 121.356 5.68343 121.789 7.36676 121.789C8.34626 121.789 9.77738 121.619 10.7686 120.829C11.4431 120.296 11.9182 119.465 11.9182 118.207C11.9182 117.44 11.49 116.75 10.6102 116.054C9.71286 115.334 8.34039 114.602 6.50457 113.783C4.65701 112.964 3.15551 112.238 2.11736 111.354C1.05575 110.453 0.46922 109.388 0.46922 107.913C0.46922 105.578 1.61881 104.332 3.10859 103.67C4.5749 103.021 6.3638 102.951 7.69521 102.951C9.21431 102.951 10.9328 103.185 12.1704 103.665C13.232 104.074 13.9534 104.671 13.9534 105.467V107.404C13.9534 107.615 13.4784 107.726 13.3083 107.726C13.2262 107.726 13.0971 107.708 12.9798 107.673C12.8214 107.632 12.6865 107.545 12.6865 107.404C12.6865 106.649 12.1352 105.771 11.1733 105.122C10.3404 104.554 9.19672 104.162 7.83012 104.162C7.03831 104.162 5.58959 104.302 4.58076 105.034C3.94145 105.502 3.47223 106.21 3.47223 107.287C3.47223 108.077 3.99424 108.779 4.89749 109.446C5.8242 110.137 7.14974 110.792 8.72163 111.454C10.4871 112.215 12.2056 113.192 13.3904 114.397C14.3699 115.386 14.9916 116.539 14.9916 117.862C14.9916 120.144 13.9124 121.432 12.4167 122.151ZM36.4819 104.379C38.4702 103.068 40.8867 102.951 42.6404 102.951C44.4176 102.951 46.8165 103.085 48.7813 104.408C50.7521 105.736 52.2712 108.241 52.2712 112.964C52.2712 117.727 50.7227 120.238 48.7461 121.56C46.7637 122.877 44.3648 123 42.6404 123C40.9571 123 38.5406 122.883 36.5347 121.566C34.5288 120.249 32.9451 117.739 32.9451 112.964C32.9451 108.2 34.4936 105.695 36.4819 104.379ZM38.8749 120.519C40.1007 121.666 41.6023 121.789 42.6404 121.789C43.8017 121.789 45.2856 121.677 46.4646 120.536C47.6611 119.383 48.5702 117.177 48.5702 112.964C48.5702 108.773 47.6787 106.567 46.488 105.403C45.315 104.256 43.8311 104.133 42.6404 104.133C41.485 104.133 39.9834 104.256 38.7869 105.403C37.5728 106.567 36.652 108.779 36.652 112.964C36.652 117.142 37.6315 119.354 38.8749 120.519ZM70.1015 121.713C70.1602 121.59 70.2482 121.508 70.3772 121.508C71.6734 121.508 72.3362 121.332 72.6705 121.057C72.9755 120.805 72.999 120.437 72.999 120.033V105.777C72.999 105.385 72.9755 105.016 72.6705 104.759C72.3362 104.484 71.6734 104.302 70.3772 104.302C70.2658 104.302 70.1719 104.215 70.1074 104.092C70.0605 103.992 70.0253 103.864 70.0253 103.752C70.0253 103.624 70.0487 103.483 70.1015 103.384C70.1602 103.261 70.2482 103.179 70.3772 103.179H80.3247C83.7148 103.179 85.5506 104.074 86.5477 105.192C87.5448 106.321 87.6856 107.662 87.6856 108.545C87.6856 109.523 87.5213 110.711 86.7471 111.729C86.0316 112.659 84.8116 113.438 82.7411 113.771C83.1986 113.999 83.5682 114.31 83.8673 114.631C84.2661 115.065 84.5418 115.533 84.7295 115.884L87.0345 119.957C87.275 120.396 87.5155 120.788 87.9202 121.063C88.3307 121.338 88.9231 121.508 89.8733 121.508C90.0023 121.508 90.0903 121.59 90.1431 121.707C90.2076 121.841 90.2252 122.04 90.2252 122.081C90.2252 122.128 90.2076 122.321 90.1431 122.462C90.0903 122.573 90.0023 122.661 89.8733 122.661H86.2662C86.055 122.661 85.5799 122.614 85.1752 122.456C84.8996 122.35 84.6532 122.187 84.5301 121.952L81.4273 116.165C80.8584 115.117 80.3129 114.561 79.7323 114.28C79.1458 113.994 78.5006 113.964 77.7557 113.964H76.436V120.033C76.436 120.437 76.4595 120.805 76.7703 121.057C77.1046 121.332 77.7791 121.508 79.0871 121.508C79.2161 121.508 79.2982 121.595 79.3569 121.713C79.4097 121.835 79.439 121.999 79.439 122.081C79.439 122.163 79.4097 122.333 79.3569 122.456C79.2982 122.573 79.2161 122.661 79.0871 122.661H70.3772C70.2658 122.661 70.166 122.567 70.1074 122.438C70.0605 122.339 70.0253 122.204 70.0253 122.081C70.0253 121.952 70.0487 121.812 70.1015 121.713ZM76.436 112.753H79.1927C81.5388 112.753 82.7939 112.127 83.4626 111.296C84.1254 110.459 84.2133 109.4 84.2133 108.545C84.2133 107.656 84.1254 106.614 83.4802 105.801C82.8291 104.987 81.6092 104.39 79.3217 104.39H77.7909C77.1633 104.39 76.8348 104.583 76.6706 104.853C76.4947 105.133 76.4712 105.514 76.4712 105.865L76.436 112.753ZM106.683 121.713C106.742 121.59 106.83 121.508 106.959 121.508C107.997 121.508 108.666 121.391 109.064 121.145C109.44 120.911 109.581 120.548 109.581 120.033V105.777C109.581 105.239 109.422 104.87 109.041 104.648C108.636 104.402 107.968 104.302 106.959 104.302C106.824 104.302 106.736 104.221 106.683 104.115C106.624 103.998 106.607 103.834 106.607 103.752C106.607 103.641 106.636 103.495 106.683 103.384C106.742 103.261 106.83 103.179 106.959 103.179H121.945C122.062 103.179 122.167 103.208 122.244 103.261C122.337 103.319 122.396 103.413 122.396 103.518C122.531 104.367 122.965 106.392 122.965 107.117C122.965 107.246 122.865 107.328 122.725 107.375C122.596 107.416 122.425 107.439 122.314 107.439C122.208 107.439 122.05 107.416 121.927 107.375C121.804 107.334 121.698 107.264 121.669 107.158C121.376 106.041 121.059 105.332 120.66 104.911C120.279 104.507 119.804 104.361 119.176 104.361H114.367C113.909 104.361 113.581 104.455 113.37 104.677C113.152 104.911 113.053 105.291 113.053 105.865V111.928H117.839C118.472 111.928 118.936 111.817 119.241 111.53C119.54 111.243 119.692 110.763 119.692 110.026C119.692 109.809 120.085 109.704 120.343 109.704C120.455 109.704 120.596 109.722 120.713 109.751C120.871 109.798 120.994 109.885 120.994 110.026V115.041C120.994 115.258 120.607 115.363 120.343 115.363C120.232 115.363 120.091 115.345 119.98 115.316C119.815 115.269 119.692 115.182 119.692 115.041C119.692 114.274 119.54 113.795 119.241 113.514C118.942 113.239 118.472 113.139 117.839 113.139H114.906C114.255 113.139 113.786 113.221 113.493 113.514C113.194 113.806 113.053 114.333 113.053 115.211V119.945C113.053 120.501 113.152 120.887 113.37 121.121C113.575 121.35 113.897 121.449 114.337 121.449H119.475C120.132 121.449 120.596 121.256 120.965 120.829C121.346 120.39 121.64 119.688 121.933 118.687C121.991 118.4 122.455 118.4 122.584 118.4C122.672 118.4 122.871 118.412 123.018 118.459C123.159 118.5 123.264 118.582 123.264 118.716C123.264 119.436 122.83 121.478 122.695 122.315C122.672 122.421 122.619 122.508 122.531 122.573C122.455 122.625 122.349 122.661 122.214 122.661H106.959C106.83 122.661 106.742 122.573 106.683 122.456C106.636 122.345 106.607 122.198 106.607 122.081C106.607 121.97 106.636 121.824 106.683 121.713ZM156.878 122.555C156.79 122.625 156.673 122.661 156.591 122.661H141.57C141.458 122.661 141.359 122.567 141.3 122.438C141.253 122.339 141.218 122.204 141.218 122.081C141.218 121.952 141.241 121.824 141.294 121.724C141.353 121.607 141.441 121.531 141.57 121.531C142.813 121.531 143.476 121.35 143.822 121.063C144.145 120.794 144.191 120.419 144.191 120.033L144.209 112.993C144.215 110.277 144.227 107.556 144.227 105.777C144.227 105.368 144.156 105.005 143.822 104.759C143.458 104.49 142.784 104.332 141.57 104.332C141.446 104.332 141.359 104.244 141.3 104.127C141.247 104.01 141.218 103.852 141.218 103.752C141.218 103.624 141.241 103.483 141.294 103.384C141.353 103.261 141.441 103.179 141.57 103.179H150.315C150.444 103.179 150.526 103.267 150.573 103.384C150.62 103.507 150.631 103.676 150.631 103.752C150.631 103.793 150.62 103.986 150.567 104.121C150.52 104.238 150.438 104.332 150.315 104.332C149.036 104.332 148.367 104.513 148.021 104.788C147.699 105.04 147.664 105.403 147.664 105.777V119.974C147.664 120.349 147.693 120.718 148.01 120.981C148.35 121.262 149.019 121.449 150.315 121.449H153.822C154.397 121.449 154.854 121.326 155.236 120.928C155.629 120.519 155.951 119.811 156.245 118.658C156.303 118.4 156.72 118.4 156.925 118.4C157.03 118.4 157.201 118.418 157.324 118.453C157.47 118.494 157.576 118.57 157.576 118.693L157.57 118.734C157.552 118.786 157.406 119.746 157.271 120.653C157.154 121.461 157.042 122.222 157.042 122.28L157.036 122.315C157.013 122.415 156.954 122.497 156.878 122.555ZM190.216 122.555C190.128 122.625 190.017 122.661 189.935 122.661H174.914C174.802 122.661 174.702 122.567 174.644 122.438C174.597 122.339 174.562 122.204 174.562 122.081C174.562 121.952 174.585 121.824 174.638 121.724C174.697 121.607 174.785 121.531 174.914 121.531C176.157 121.531 176.82 121.35 177.166 121.063C177.488 120.794 177.535 120.419 177.535 120.033L177.553 112.993C177.559 110.277 177.565 107.556 177.565 105.777C177.565 105.368 177.5 105.005 177.166 104.759C176.802 104.49 176.128 104.332 174.914 104.332C174.79 104.332 174.697 104.244 174.644 104.127C174.591 104.01 174.562 103.852 174.562 103.752C174.562 103.624 174.585 103.483 174.638 103.384C174.691 103.261 174.785 103.179 174.914 103.179H183.659C183.788 103.179 183.864 103.267 183.911 103.384C183.964 103.507 183.975 103.676 183.975 103.752C183.975 103.793 183.958 103.986 183.905 104.121C183.864 104.238 183.782 104.332 183.659 104.332C182.38 104.332 181.706 104.513 181.36 104.788C181.043 105.04 181.008 105.403 181.008 105.777V119.974C181.008 120.349 181.037 120.718 181.354 120.981C181.694 121.262 182.363 121.449 183.659 121.449H187.166C187.741 121.449 188.198 121.326 188.58 120.928C188.973 120.519 189.295 119.811 189.589 118.658C189.647 118.4 190.064 118.4 190.269 118.4C190.374 118.4 190.539 118.418 190.662 118.453C190.808 118.494 190.92 118.57 190.92 118.693L190.914 118.734C190.896 118.786 190.75 119.746 190.615 120.653C190.498 121.461 190.386 122.222 190.386 122.28L190.38 122.315C190.357 122.415 190.292 122.497 190.216 122.555ZM220.082 122.45C220.029 122.573 219.941 122.661 219.806 122.661H211.091C210.973 122.661 210.891 122.561 210.844 122.426C210.797 122.315 210.774 122.163 210.774 122.052C210.774 121.958 210.791 121.812 210.838 121.701C210.885 121.59 210.967 121.508 211.091 121.508C212.387 121.508 213.055 121.303 213.401 121.016C213.718 120.747 213.747 120.378 213.747 120.033V114.198L208.563 105.853C208.305 105.432 207.994 105.046 207.507 104.765C207.008 104.478 206.322 104.302 205.319 104.302C205.196 104.302 205.096 104.221 205.032 104.109C204.973 104.004 204.932 103.869 204.932 103.752C204.932 103.612 204.961 103.471 205.014 103.366C205.079 103.249 205.178 103.179 205.319 103.179H213.83C213.959 103.179 214.047 103.267 214.099 103.384C214.152 103.501 214.182 103.653 214.182 103.752C214.182 103.817 214.164 103.992 214.099 104.115C214.047 104.221 213.964 104.302 213.83 104.302C212.662 104.302 212.181 104.49 212.047 104.753C211.918 105.005 212.111 105.362 212.322 105.701L216.369 112.121C216.381 112.15 216.404 112.174 216.428 112.191C216.469 112.22 216.528 112.232 216.58 112.232C216.639 112.238 216.698 112.22 216.745 112.197C216.786 112.179 216.815 112.15 216.844 112.115L220.844 105.701C221.103 105.291 221.255 104.929 221.108 104.706C220.95 104.455 220.446 104.302 219.372 104.302C219.249 104.302 219.161 104.221 219.102 104.109C219.05 103.998 219.02 103.852 219.02 103.752C219.02 103.624 219.044 103.483 219.097 103.384C219.155 103.261 219.243 103.179 219.372 103.179H225.648C226 103.179 226 103.6 226 103.752C226 103.787 226 103.905 225.971 104.016C225.93 104.162 225.836 104.302 225.648 104.302C224.61 104.302 223.918 104.49 223.425 104.776C222.938 105.057 222.645 105.444 222.405 105.853V105.859C221.713 106.912 220.739 108.498 219.789 110.049C218.78 111.694 217.795 113.297 217.185 114.204V120.033C217.185 120.39 217.22 120.759 217.542 121.028C217.882 121.315 218.545 121.508 219.806 121.508C219.935 121.508 220.023 121.584 220.076 121.695C220.141 121.818 220.158 121.988 220.158 122.052C220.158 122.134 220.141 122.315 220.082 122.45ZM88.2604 35.8501L88.2897 35.8092L88.2956 35.8033V35.7916H88.3014V35.7858L88.3073 35.7799L88.3131 35.7682L88.3249 35.7565L88.3307 35.7448L88.3366 35.7389V35.7331L88.3483 35.7214V35.7155L88.3601 35.7038V35.698L88.3718 35.6863V35.6804H88.3777V35.6746L88.3835 35.6687L88.2604 35.8501ZM88.624 35.3176L88.6299 35.3059L88.6416 35.2942L88.624 35.3176ZM112.742 27.1071H112.871H112.613H112.742ZM126.924 64.0983L126.93 64.1042H126.936V64.1159H126.942V64.1217L126.953 64.1335V64.1393L126.965 64.151V64.1569L126.977 64.1686V64.1744L126.989 64.1978L127 64.2095V64.2154L127.012 64.2271V64.2329H127.018V64.2388L127.036 64.2681V64.2739L127.047 64.2856V64.2915L126.924 64.0983ZM139.851 39.3907L139.857 39.3965V39.4024L139.863 39.4141V39.4199H139.869V39.4316L139.904 39.4902V39.5019H139.91V39.5077L139.916 39.5136V39.5253H139.922V39.5311L139.927 39.537V39.5487L139.939 39.5604L139.851 39.3907ZM140.596 40.9766L140.625 41.0468V41.0527L140.655 41.117V41.1229L140.666 41.1346V41.1463L140.672 41.1522V41.158L140.678 41.1639V41.1756L140.684 41.1814V41.1873L140.69 41.1931V41.2048L140.696 41.2107L140.702 41.2224V41.2341L140.707 41.2399L140.596 40.9766ZM133.364 35.616C137.886 40.4792 139.851 45.9509 139.628 52.4058V52.4585L139.622 52.4936V52.5287L139.617 52.5814V52.6691L139.611 52.7394V52.7569L139.605 52.8096V52.8447L139.599 52.8798V52.9325L139.593 52.95L139.587 53.0203V53.0905L139.581 53.108V53.1607L139.575 53.1958V53.2309L139.57 53.2836V53.3012L139.564 53.3714L139.552 53.307C139.511 53.0027 139.47 52.7043 139.423 52.4116L139.417 52.3999C139.335 51.7913 139.194 51.1534 139.065 50.5448L139.036 50.4219C138.109 46.343 136.279 42.3928 133.493 39.2502L133.487 39.2444L133.481 39.2327L133.452 39.2034L133.446 39.1917L133.435 39.1858L133.417 39.1683L133.411 39.1566L133.382 39.1273L133.376 39.1156L133.364 39.1039L133.235 38.9576C132.842 38.5363 132.49 38.1734 132.086 37.7813L132.074 37.7696L131.945 37.6467L131.88 37.5824H131.874C128.713 34.6329 125.041 32.8129 120.865 31.7888L120.537 31.7127L120.349 31.6717H120.332L120.326 31.6659H120.308L120.302 31.66H120.279L120.273 31.6542H120.249L120.244 31.6483H120.22C111.745 29.8985 101.879 32.1867 95.8617 38.4017H95.8559L95.8324 38.4251V38.4309H95.8265V38.4368H95.8207V38.4426L95.8148 38.4485H95.8089V38.4543L95.7972 38.466H95.7913V38.4719L95.7855 38.4777H95.7796V38.4836L95.7561 38.507V38.5128L95.7386 38.5304H95.7327L95.6037 38.6767H95.5978V38.6826H95.5919V38.6884H95.5861V38.6943H95.5802V38.7001H95.5743V38.706L95.5509 38.7294V38.7352H95.545V38.7411H95.5391V38.7469H95.5333V38.7528L95.5274 38.7586H95.5215V38.7645L95.504 38.782V38.7879H95.4981V38.7937H95.4922V38.7996H95.4864V38.8055H95.4805V38.8113L95.4746 38.8172C91.7209 43.0892 89.1577 48.4673 88.8938 54.2317L88.8879 54.2375V54.3487L88.8762 54.5711V54.612C88.8117 57.0348 89.1401 59.3698 89.8029 61.7692V61.7809L89.8088 61.7868V61.7985L89.8147 61.8043V61.8102L89.8205 61.8219V61.8394L89.8264 61.8453V61.8628L89.8322 61.8687V61.8862L89.8381 61.8921V61.9038L89.844 61.9096V61.9214L89.8498 61.9389L89.8557 61.9506V61.9623L89.8616 61.9682V61.9799L89.8674 61.9974L89.8733 62.0091V62.0208L89.8792 62.0325V62.0384L89.8909 62.0618V62.0794L89.8968 62.0911V62.0969L89.9026 62.1086V62.1203L89.9085 62.132V62.1379L89.9144 62.1496V62.1554L89.9202 62.1613V62.1788L89.9261 62.1905L89.932 62.2081C90.8176 65.1576 92.1608 67.8788 94.0083 70.2372L94.0142 70.2489L94.0318 70.2665L94.0376 70.2782L94.0552 70.2957L94.2547 70.5415L94.2605 70.5474C96.548 73.1867 98.812 75.0301 101.985 76.7389L102.243 76.8735L102.513 77.0081L102.519 77.014H102.525L102.531 77.0198H102.536L102.542 77.0257H102.548L102.554 77.0315H102.56L102.73 77.1193L103 77.2481L103.252 77.3593C105.305 78.2722 107.193 78.8164 109.428 79.1032L109.733 79.1383C112.683 79.4543 116.073 79.0154 118.496 77.4002H118.502V77.3944H118.507L118.519 77.3827H118.525V77.3768H118.537V77.371H118.543L118.672 77.2773L118.678 77.2715H118.683V77.2656H118.689V77.2598H118.695L118.701 77.2539H118.707V77.2481H118.713V77.2422H118.719L118.724 77.2364H118.73L118.754 77.213H118.76V77.2071H118.766C120.32 75.6563 120.901 75.0652 121.27 72.6307V72.6015C121.493 70.799 121.264 69.7749 120.091 68.3411H120.085V68.3353H120.079V68.3294L120.068 68.3119H120.062L120.056 68.306V68.3002L120.032 68.2768V68.2709H120.027V68.2651L120.015 68.2533H120.009V68.2475L119.997 68.2358V68.2299H119.991L119.986 68.2241V68.2182L119.98 68.2124H119.974V68.2065L119.962 68.1948L119.833 68.0485H119.827V68.0427L119.821 68.0368H119.815L119.81 68.031V68.0251L119.804 68.0193H119.798V68.0134L119.769 67.9842V67.9783H119.763V67.9725H119.757L119.751 67.9666V67.9607H119.745L119.739 67.9549V67.949H119.733V67.9432H119.727V67.9373H119.722V67.9315H119.716V67.9256L119.71 67.9198H119.704V67.9139C118.337 66.5328 116.601 65.4736 114.853 64.5197L114.595 64.3792L114.378 64.2622L114.032 64.0866L113.774 63.952L113.645 63.8877C110.847 62.4597 107.979 61.3127 105.27 59.7444L105.141 59.6624V59.6683L105.064 59.6215L105.012 59.5863L104.882 59.5103H104.877L104.865 59.4986H104.859L104.847 59.4869H104.841L104.83 59.4752H104.824L104.818 59.4693H104.812L104.806 59.4635C102.108 57.7956 99.809 55.6713 99.1228 52.3824L99.1111 52.3356V52.318L99.1052 52.3063V52.2829L99.0993 52.2712V52.2595L99.0935 52.2478V52.2361L99.0876 52.2244V52.201L99.0818 52.1834V52.1717C98.1785 47.215 100.413 42.6971 103.721 40.5318V40.526C105.422 39.4316 107.358 38.7762 109.416 38.4017L109.522 38.3841V38.3899L109.651 38.3665L109.739 38.349L109.78 38.3431L109.909 38.3197L110.167 38.2846V38.2788H110.185L110.296 38.2612C113.739 37.7813 117.862 37.8633 121.247 38.6591L121.299 38.6709H121.311L121.317 38.6767H121.335L121.34 38.6826H121.358L121.364 38.6884H121.376L121.505 38.7235H121.528L121.534 38.7294H121.54L121.552 38.7352H121.569L121.575 38.7411H121.593L121.598 38.7469H121.616L121.622 38.7528H121.634L121.763 38.7879H121.769L121.774 38.7937H121.786L121.798 38.7996H121.815L121.821 38.8055H121.833L121.839 38.8113H121.857L121.862 38.8172H121.874L121.892 38.823L122.032 38.864L122.056 38.8698L122.091 38.8815H122.109L122.115 38.8874H122.12L122.132 38.8932H122.15V38.8991L122.279 38.9342L122.285 38.9401H122.296L122.302 38.9459H122.326L122.332 38.9518C123.1 39.1273 124.32 39.6833 124.977 40.0988V40.1046H124.983L125.118 40.1924L125.129 40.2041H125.135L125.17 40.2275L125.176 40.2334H125.182V40.2392H125.188L125.194 40.2451L125.206 40.2509V40.2568H125.211L125.217 40.2626H125.223V40.2685H125.235V40.2743H125.241L125.247 40.2802L125.376 40.3738L125.382 40.3797H125.387V40.3855L125.399 40.3914L125.405 40.3972H125.411V40.4031H125.417V40.4089H125.423L125.434 40.4148V40.4206H125.44L125.452 40.4323H125.458V40.4382H125.464L125.47 40.444L125.481 40.4499V40.4557H125.487V40.4616H125.493L125.505 40.4733L125.645 40.5845V40.5904H125.651L125.663 40.6021H125.669V40.6079L125.675 40.6138H125.681V40.6196L125.692 40.6255L125.71 40.643H125.716V40.6489L125.722 40.6547H125.728V40.6606H125.733L125.739 40.6664V40.6723H125.745L125.757 40.684H125.763C126.385 41.2692 126.889 41.9949 126.83 42.8961L126.789 44.2479V44.2538L126.666 48.5551V48.5726L126.66 48.5844C126.654 48.6663 126.602 48.7307 126.537 48.7892L126.531 48.795H126.525V48.8009H126.519V48.8067H126.514L126.508 48.8126H126.502V48.8184L126.496 48.8243H126.484V48.8301C126.185 49.0525 125.37 49.1462 124.965 49.0876H124.942L124.936 49.0818H124.895L124.889 49.0759H124.86C124.813 49.0642 124.772 49.0584 124.731 49.0525H124.725L124.719 49.0467H124.701L124.695 49.0408H124.672V49.035H124.648V49.0291H124.625L124.619 49.0233H124.601C124.555 49.0116 124.513 48.9999 124.472 48.9823H124.461V48.9764H124.449L124.443 48.9706H124.437L124.426 48.9647H124.414L124.408 48.9589H124.402L124.39 48.953L124.355 48.9413V48.9355H124.349L124.279 48.9004H124.267L124.232 48.877V48.8653L124.097 48.7599V48.7658L124.085 48.7482C124.05 48.7014 124.033 48.6546 124.044 48.5961C124.074 47.4666 123.81 46.4483 123.358 45.4359L123.352 45.4301L123.346 45.4184V45.4125L123.34 45.4008L123.335 45.3949V45.3832L123.329 45.3774V45.3715H123.323V45.3598L123.317 45.354L123.311 45.3423C123.27 45.2545 123.229 45.1667 123.182 45.0848L123.176 45.0789V45.0731L123.17 45.0672L123.164 45.0555V45.0497L123.153 45.038V45.0321L123.147 45.0204V45.0146L123.135 45.0029V44.997L123.129 44.9853L123.123 44.9794V44.9736L123.112 44.9619V44.9502H123.106V44.9443L123.1 44.9385V44.9326L123.094 44.9268V44.9209L123.088 44.9151V44.9092L123.077 44.8975V44.8917L123.065 44.88V44.8683H123.059L123.053 44.8566V44.8507C122.138 43.2882 120.543 41.9246 118.789 41.3687L118.783 41.3628L118.742 41.3511L118.736 41.3453H118.724L118.719 41.3394H118.707V41.3336H118.689V41.3277H118.678L118.543 41.2809H118.537L118.531 41.2751H118.525L118.285 41.199H118.279L118.273 41.1931H118.261L118.255 41.1873H118.244L118.238 41.1814H118.226L118.22 41.1756H118.202L118.191 41.1697H118.185L118.167 41.1639H118.161L118.156 41.158L118.027 41.1229H118.021L118.015 41.117H117.997L117.991 41.1112H117.974L117.968 41.1053C115.997 40.5962 113.839 40.6079 111.839 40.9473H111.821L111.815 40.9532H111.792L111.786 40.959H111.78L111.581 40.9941H111.575L111.569 41H111.551L111.54 41.0058H111.534C106.419 42.0241 103.709 47.847 107.844 51.5982L107.85 51.6041H107.856V51.6099H107.862L107.886 51.6333L107.897 51.6392V51.645L107.903 51.6509H107.909L107.932 51.6743H107.938V51.6801L107.944 51.686H107.95V51.6918H107.956V51.6977H107.962L107.973 51.7094L108.103 51.8206L108.108 51.8264H108.114L108.138 51.8498H108.144V51.8557H108.149L108.155 51.8615V51.8674H108.161L108.167 51.8732H108.173V51.8791L108.179 51.885H108.185V51.8908H108.19L108.202 51.9025H108.208V51.9084H108.214L108.232 51.9259L108.361 52.0313H108.366L108.384 52.0488H108.39V52.0547H108.396L108.419 52.0781H108.425V52.0839H108.431L108.437 52.0898H108.443V52.0956H108.449V52.1015H108.454L108.466 52.1132H108.472V52.119H108.478L108.484 52.1249L108.748 52.3239C110.155 53.3421 111.657 54.1497 113.258 54.9515L113.645 55.1446C115.839 56.2155 118.097 57.1519 120.22 58.3399L120.349 58.4101L120.478 58.4862L120.525 58.5154L120.607 58.5564V58.5622C122.525 59.68 124.179 60.868 125.634 62.4246L125.651 62.4422V62.448H125.657L125.663 62.4539V62.4597H125.669V62.4656H125.675V62.4715L125.687 62.4832H125.692V62.489L125.704 62.5007V62.5066H125.71L125.716 62.5124V62.5183L125.722 62.5241H125.728V62.53L125.739 62.5358V62.5417L125.763 62.5651C125.851 62.6646 125.933 62.7641 126.021 62.8635L126.15 63.0216V63.0274H126.156L126.162 63.0333V63.0391H126.167V63.045L126.173 63.0508C127.036 64.1042 127.863 65.4736 128.256 67.2351V67.2526L128.261 67.2702V67.2878L128.267 67.3053L128.273 67.317V67.3404L128.285 67.3755V67.3989L128.291 67.4106V67.4282L128.297 67.4341V67.4458L128.302 67.4633V67.4809L128.308 67.4926V67.516L128.314 67.5277V67.5452L128.32 67.5511V67.5628L128.326 67.5921V67.5979L128.332 67.6155V67.633L128.338 67.6506V67.6681C128.443 68.2592 128.49 68.8737 128.478 69.5116V69.5233H128.473V69.6754L128.467 69.6988V69.7398C128.443 70.2197 128.402 70.6937 128.338 71.156V71.1794L128.332 71.1853V71.2262L128.326 71.2496V71.2613L128.32 71.273V71.2965L128.314 71.3199V71.3374L128.308 71.3608V71.3842L128.302 71.4018V71.4311L128.297 71.4369V71.4545L128.291 71.472V71.5071L128.285 71.5188V71.5422C127.604 75.8904 125.253 79.0798 121.634 81.1983L121.628 81.2041H121.622L121.61 81.2158H121.604L121.598 81.2217H121.593L121.587 81.2275L121.575 81.2334L121.569 81.2392L121.557 81.2451H121.552L121.505 81.2743L121.381 81.3446H121.376L121.37 81.3504H121.364L121.352 81.3621H121.346L121.34 81.368H121.335L121.329 81.3738H121.323L121.247 81.4148C113.434 85.6751 103.739 83.5157 96.501 78.3834V78.3775L96.372 78.2897C95.7034 77.8099 95.0641 77.3007 94.4423 76.7682L94.3133 76.657H94.3074L94.2605 76.6102C92.1314 74.7434 90.407 72.7185 88.8997 70.366L88.8938 70.3601V70.3484H88.8879V70.3426L88.8762 70.3309V70.325L88.8645 70.3133V70.3074L88.8586 70.3016L88.8528 70.2899V70.284H88.8469V70.2782L88.841 70.2723V70.2665L88.8234 70.2489V70.2431L88.8176 70.2372L88.8117 70.2255V70.2197L88.8 70.208V70.2021L88.7882 70.1904V70.1846L88.7824 70.1787L88.7765 70.1611H88.7706V70.1553C87.1929 67.5979 85.9846 64.7889 85.2925 61.8219L85.2867 61.8043V61.7985L85.2808 61.7809V61.775L85.2749 61.7633V61.7458L85.2691 61.7282V61.7224L85.2632 61.7107V61.699L85.2573 61.6931C84.6943 59.2118 84.5535 57.2631 84.5535 54.5711C84.794 46.1499 88.8469 38.308 95.4746 33.1699V33.164L95.5157 33.1347L95.6037 33.0645V33.0704L95.7268 32.9709L95.7738 32.9358L95.8617 32.8714V32.8772L95.9849 32.7778L96.0259 32.7485C97.9204 31.3381 99.9967 30.1677 102.173 29.2489L102.208 29.2314L102.302 29.1904V29.1963L102.431 29.1377L102.513 29.1085L102.56 29.0851L102.689 29.0382L102.771 29.0031L102.818 28.9856C108.542 26.7852 114.349 26.5569 120.22 28.0317L120.478 28.1019H120.49L120.496 28.1078H120.508L120.513 28.1136H120.531L120.537 28.1195H120.549L120.554 28.1253H120.572L120.578 28.1312H120.59L120.736 28.1721H120.748L120.865 28.2073C125.593 29.5415 129.939 32.0228 133.364 35.616ZM106.683 10.288L106.554 10.1593L106.531 10.13L106.554 10.0949C108.724 6.72995 110.894 3.36497 113.065 0C115.217 3.38838 117.364 6.78261 119.516 10.1768L119.505 10.1886L119.446 10.2646C118.126 11.9559 116.947 13.7993 116.607 15.9822V15.9763C116.472 16.8951 116.531 17.7319 116.736 18.481V18.4869C116.777 18.6215 116.818 18.7502 116.865 18.879V18.8848L116.883 18.9199C118.085 22.5307 123.17 23.7011 126.531 22.8233V22.8291L126.66 22.794V22.7882C128.819 22.162 130.584 20.857 131.37 18.6975V18.6917L131.376 18.6741L131.388 18.6507L131.399 18.6156V18.6039L131.405 18.5922V18.5864L131.411 18.5805V18.5746L131.417 18.5629V18.5571L131.423 18.5454V18.5337L131.429 18.5278V18.5161C132.127 16.3508 131.558 14.1973 130.66 12.2544L130.654 12.2485V12.2426H130.649V12.2309L130.643 12.2251V12.2192H130.637V12.2075L130.631 12.2017V12.1958L130.625 12.19V12.1841L130.619 12.1783V12.1724L130.613 12.1666V12.1607L130.607 12.1549V12.149L130.602 12.1432V12.1373L130.596 12.1256V12.1198L130.59 12.1139V12.108H130.584V12.0963L130.578 12.0905V12.0846H130.572V12.0788L130.566 12.0729V12.0612L130.561 12.0554V12.0495L130.555 12.0437L130.549 12.032V12.0261L130.543 12.0203V12.0144L130.537 12.0086V12.0027L130.531 11.9969V11.991L130.432 11.7979L130.531 11.7394L130.66 11.6633C133.411 10.0364 136.15 8.37439 138.907 6.7475L139.153 6.6012C137.74 10.5514 136.402 14.5367 135.042 18.5103C133.968 21.6353 132.895 24.7662 131.816 27.8971L131.581 28.5876L131.816 28.8217L131.88 28.8802C135.218 32.1399 138.127 35.8911 140.068 39.8296L139.939 39.5662L140.074 39.8354L140.092 39.8764L140.097 39.8939L140.103 39.8998L140.109 39.9115V39.9174L140.115 39.9291L140.121 39.9349V39.9408L140.127 39.9525L140.133 39.9583V39.9642L140.139 39.97V39.9759L140.144 39.9876V39.9934H140.15V39.9993L140.156 40.0051V40.011L140.162 40.0168V40.0285H140.168V40.0344L140.174 40.0402V40.0461L140.185 40.0695V40.0754L140.191 40.0812L140.197 40.0929C141.312 42.463 142.649 46.0913 142.262 50.1703L142.256 50.1469V50.1235L142.25 50.1176V50.0942L142.244 50.0884V50.0591L142.238 50.0474V50.024L142.232 50.0181C142.203 49.8309 142.162 49.6494 142.127 49.468V49.4446C141.482 46.144 140.344 42.9546 138.649 40.0871L138.637 40.0637L138.631 40.0578L138.614 40.0227L138.608 40.0168L138.52 39.8705L138.391 39.6482V39.654C135.546 34.984 131.423 31.3147 126.531 28.9095L126.496 28.8919H126.49L126.484 28.8861H126.478L126.472 28.8802H126.467L126.455 28.8744L126.449 28.8685H126.443L126.437 28.8627H126.431L126.42 28.8568L126.414 28.851H126.402L126.273 28.7866L126.267 28.7808H126.261L126.255 28.7749H126.25L126.244 28.7691L126.232 28.7632H126.226L126.22 28.7574H126.214L126.209 28.7515H126.203L126.197 28.7456H126.191L126.185 28.7398C117.305 24.3156 105.897 24.7838 97.4043 29.8166L97.3398 29.8517L97.328 29.8634H97.3222L97.3163 29.8693H97.3104L97.2987 29.881H97.2929L97.287 29.8868H97.2811L97.2753 29.8927L97.1462 29.9687L96.7591 30.2087L96.6301 30.2906L96.6125 30.3082L96.5949 30.3199H96.589L96.5773 30.3316H96.5714L96.5597 30.3433H96.5538L96.5421 30.355H96.5304L96.5245 30.3608C92.7532 32.6783 89.5448 36.3242 87.3512 40.1163L87.3454 40.1222L87.3278 40.1573L87.0932 40.5786V40.5845H87.0873V40.5904L87.0814 40.5962V40.6021L87.0756 40.6079V40.6138L87.0697 40.6196L87.0639 40.6313V40.6372H87.058V40.643L87.0521 40.6489V40.6606H87.0462V40.6664L87.0404 40.6723L87.0345 40.684V40.6898L87.0287 40.6957L87.0228 40.7074V40.7132H87.0169V40.7191L87.0111 40.7249V40.7367H87.0052V40.7425L86.9993 40.7484V40.7601H86.9935V40.7659L86.9817 40.7776V40.7893H86.9759V40.7952L86.97 40.801V40.8069L86.9641 40.8127C85.4274 43.5106 84.4949 46.5244 83.6737 49.5968C84.1195 45.6817 84.9054 41.9949 86.5067 38.8698C86.5301 38.8113 86.5536 38.7528 86.577 38.706L86.7061 38.4485L86.7119 38.4426V38.4368L86.7178 38.4309V38.4251L86.7237 38.4192V38.4134L86.7295 38.4075L86.7354 38.3958L86.7413 38.3899V38.3841L86.7471 38.3782V38.3724L86.753 38.3665V38.3607L86.7589 38.349L86.7647 38.3431V38.3373L86.7706 38.3256L86.7765 38.3197V38.3139L86.7823 38.3022L86.7882 38.2963V38.2905H86.794V38.2788L86.8058 38.2671V38.2612L86.8116 38.2495L86.8175 38.2436V38.2319L86.8292 38.2202V38.2144L86.8351 38.2085V38.2027C88.4832 35.1362 90.929 32.0697 94.0024 28.851L94.0552 28.7983L94.3133 28.5291L94.4189 28.4121L94.3133 28.1019L94.0552 27.3645C91.7736 20.8394 89.5038 14.3084 87.2222 7.78333L86.9641 7.04596L86.8351 6.67142L86.8234 6.63631L86.9641 6.71239L87.2222 6.86454L87.3512 6.93477L87.4803 7.01085L87.6093 7.08107C90.1431 8.52655 92.6828 9.97202 95.2166 11.4175L95.3456 11.4936L95.4746 11.5638L95.6037 11.6399L95.762 11.7335V11.7394L95.7561 11.7452V11.7511H95.7503V11.7569L95.7268 11.8037V11.7979L95.5978 12.0788V12.0846L95.5919 12.1022H95.5861L95.5802 12.1198L95.5743 12.1315L95.5685 12.149L95.545 12.1958V12.2017L95.5274 12.2368V12.2426L95.5215 12.2485L95.5157 12.2661L95.5098 12.2719L95.4746 12.3655C95.4277 12.4709 95.3866 12.5704 95.3456 12.6699V12.6757L95.3397 12.6874L95.3339 12.6933V12.705H95.328V12.7167L95.3163 12.7401V12.7459L95.3104 12.7518V12.7576L95.3045 12.7693V12.7752L95.2987 12.781V12.7869L95.2928 12.7927V12.8045L95.2811 12.8279V12.8337L95.2693 12.8571V12.863L95.2635 12.8688V12.8805L95.2459 12.9156V12.9215L95.2342 12.9449V12.9566L95.2283 12.9625V12.9683L95.2224 12.9917L95.2166 12.9976V13.0034C94.5948 14.7415 94.2605 16.5147 94.7825 18.4108V18.4225L94.806 18.5103L94.8118 18.5161V18.5278L94.8177 18.5337V18.5454L94.8236 18.5571V18.5629L94.8294 18.5746C94.8705 18.7092 94.9116 18.838 94.9585 18.9609L94.9643 18.9726L94.9702 18.996L94.9761 19.0077V19.0136L94.9995 19.0604V19.0662L95.0817 19.2652V19.2711L95.0875 19.2769C95.9966 21.3837 97.8383 22.6653 99.9615 23.2446H99.9733L99.9791 23.2505H99.985L100.114 23.2798L100.137 23.2856L100.155 23.2915L100.184 23.2973H100.196L100.202 23.3032L100.225 23.309H100.237C103.428 23.9645 106.572 22.7999 108.454 20.2132L108.46 20.2074L108.49 20.1664C108.9 19.5637 109.211 19.0019 109.434 18.2645V18.2528L109.44 18.2411V18.2352L109.446 18.2235V18.2118L109.457 18.1884V18.1826L109.463 18.1591L109.469 18.1474V18.1357L109.475 18.124V18.1123L109.481 18.0948L109.487 18.0831V18.0714L109.493 18.0597V18.048L109.498 18.0304L109.504 18.0187V18.007L109.51 17.9953V17.9777L109.516 17.966V17.9543L109.522 17.9426C109.739 17.0238 109.757 16.0231 109.498 14.9639V14.958L109.493 14.9463C109.463 14.8234 109.428 14.7005 109.393 14.5718C108.918 13.0093 107.921 11.5931 106.836 10.446H106.83V10.4402H106.824V10.4343L106.812 10.4226L106.683 10.288Z" fill="url(#paint0_linear_1_27)"/>
<defs>
<linearGradient id="paint0_linear_1_27" x1="113" y1="0" x2="113" y2="123" gradientUnits="userSpaceOnUse">
<stop stop-color="#FFD058"/>
<stop offset="1" stop-color="#FBB400"/>
</linearGradient>
</defs>
</svg>
